<?xml version="1.0" encoding="UTF-8" standalone="no"?>
<!DOCTYPE svg PUBLIC "-//W3C//DTD SVG 1.1//EN" "http://www.w3.org/Graphics/SVG/1.1/DTD/svg11.dtd">
<svg width="100%" height="100%" viewBox="0 0 24 24" version="1.1" xmlns="http://www.w3.org/2000/svg" xmlns:xlink="http://www.w3.org/1999/xlink" xml:space="preserve" xmlns:serif="http://www.serif.com/" style="fill-rule:evenodd;clip-rule:evenodd;stroke-linejoin:round;stroke-miterlimit:2;">
    <rect x="0" y="0" width="24" height="24" style="fill:none;fill-rule:nonzero;"/>
    <g transform="matrix(0.707107,0.707107,-0.707107,0.707107,17.8854,-11.3843)">
        <path d="M11.878,15.263L8.137,15.263L13.081,7.262L18.025,15.263L14.284,15.263L14.284,25.605L11.878,25.605L11.878,15.263Z"/>
    </g>
    <path d="M12,2.957L12,5.189L4,5.232L4,21L20,21L20,12.799L22,12.799L22,21C22,22.1 21.1,23 20,23L4,23C2.9,23 2,22.1 2,21L2,5C2,3.9 2.9,3 4,3L12,2.957Z" style="fill-rule:nonzero;"/>
</svg>
